<?xml version="1.0" encoding="UTF-8"?>
<svg xmlns="http://www.w3.org/2000/svg" version="1.1" viewBox="0 0 199.53 126.42">
  <!-- Generator: Adobe Illustrator 30.1.0, SVG Export Plug-In . SVG Version: 2.1.1 Build 136)  -->
  <defs>
    <style>
      .st0, .st1 {
        fill: none;
      }

      .st2, .st3, .st4 {
        fill: #fff;
      }

      .st2, .st4 {
        opacity: .5;
      }

      .st1 {
        stroke: #000;
        stroke-miterlimit: 10;
        stroke-width: 2px;
      }

      .st4, .st5 {
        display: none;
      }
    </style>
  </defs>
  <g id="Layer_1" class="st5">
    <g>
      <path class="st3" d="M30.72,14.59c3.72,3.76,7.24,6.92,10.37,11.06l-5.7-4.42c-2.23,4.68-6.26,7.28-4.75,10.75l2.08,4.78-2.77,16.38c2.22,6.88,5.29,13.28,8.67,19.69,2.7-2.06,5.6-4.24,5.99-7.36.88-7.07-1.24-13.78-3.25-20.87,5.22,4.8,9.76,9.99,15.83,13.19,1.17.21,2.46.52,3.55,1.01,5.81,2.6,11.97,2.91,18.33,2.01,13.28-1.88,25.83-6.24,37.95-11.9,1.76-.82,3.16-1.07,5.26-1.15-2.02,5.97-3.55,3.62-2.99,10.46-1.04-1.74-2.34-4.24-4.17-4.61-2.34,1.92-1.45,5.04-.88,7.75-1.22-1.17-2.55-2.41-4.01-3.55-3.98,2.52-.07,7.53.65,10.33-1-.88-4.49-7.1-6.46-5.66-.27.2-.83,1.01-.84,1.37l-.12,4.15-3.47-6.26c-15.05,12.8-6.03,13.13-11.27,23.79l-4.23,8.61,1.24,5.26c-11.25,11.75-24.59,20.52-39.68,26.39-3.5,1.36-6.9,2.9-10.57,3.47-6.68-4.9-13.45-13.16-20.09-17.18-3.13-1.89-7.35-1.97-10.63-3.33-4.42-4.39-8.75-8.45-13.51-12.44l-13.11-10.99c-2.66-2.23-5.83-2.74-8.86-.77-3.9,2.53-7.82,5.15-11.62,7.92.43.82,1.07,1.64,1.57,1.7.4.05,1.37-.28,1.73-.55l9.28-7.08c3.98-3.04,7.86,1.88,9.95,4.68-1.52,6.33-.91,12.41.42,18.74.48,2.28,1.63,4.47,3.42,6.07,5.97,5.32,11.72,10.41,18.31,15.5l-6.99-18.97c1.25,1.86,1.98,3.7,2.98,5.75l8.16,16.76,26.96,23.01-10.47-23.85,12.68,23.6c2.22,4.12,5.69,7.46,9.5,10.13,3.67-.22,7.37-.89,10.94-1.59l-2.26-4.89,3.68,4.31c4.59-.75,8.74-1.72,13.42-3.72-6.54-7.2-13.03-13.02-20.12-19.86l10.17,1.02c-2.01.88-3.28,1.29-4.85,2.39,5.28.14,9.45-.73,14.26-.96,7.82-.37,15.43-.04,23.2.69,1.27.12,3.39.8,4.44-.09,10.65-8.92,18.53-19.86,24.9-32.14,9.97-19.22,12.47-40.9,6.93-61.84l-6.13-5.69c-1.15-1.07-4.16-.87-5.63-.22l-12.22,5.34c-8.25,3.61-14.74-2.07-21.18-8.33l40.66.33c.52,0,2.25.12,2.11-.36-1.43-4.78-2.96-8.67-4.95-12.82-1.08-.18-1.87-2.96-2.34-3.9-8.29-16.49-23.42-31.24-40.33-39.69C41.93-32.99-4-25.38-33.79,4.57c-10.21,10.27-17.97,22.53-22.32,36.36l4.42,3.29c-1.55,2.05-3.6,2.2-6.04,1.36-2.86,9.66-3.77,19.3-3.67,29.31l5.17,5.14c8.46-4.76,15.66-10.78,21.87-18.16,4.06-4.83,4.05-8.26,7.32-13.54,3.55,3.26,6.34,5.95,9.58,9.25,8.74,8.91,18.16,16.9,28.38,24.03,7.74,5.4,14.88-.02,21.79-4.91C18.5,61.64,10.29,46.09-4.84,31.87c-1.93,3.29-2.52,7.14-1.39,10.73l-1.52-1.1-1.75,8.72-.72-17.56c-.07-1.58-.35-2.95-.8-4.54l-1.6,4.87c-.59-3.09-.73-5.78-1.91-8.79-1.7,4.43-.16,8.43-.72,12.49l-2.86-9.54c-.15-.49-1.8.66-1.82,1.16l-.17,7.95-1.62-2.75-2.37,7.76-.36,1.25c-.08.28-1.28-.16-1.26-.53.12-1.98.32-5.83.21-8.56-3.17,4.16-4.79,8.73-7.02,13.3l2.22-12.66c-2.45,1.58-3.84,3.87-5.02,6.45l-3.99,8.75.32-8.09c-4.09,3.32-4.64,7.86-6.52,12.11l-.17-6.45c-2.38.51-2.95,2.76-3.57,4.78l-.75-2.71-4.46,2.91c.31-1.94,1.72-3.4,3.43-4.72,11.65-8.95,23.04-18.05,34.12-27.76.94.18,2.11.72,2.79,1.34C.89,34.45,10.84,48.09,25.18,62.33c-2.05-4.14-4.53-7.14-6.22-11.22.98-3.08,2.11-6.14,3.46-9.1l.38,6.36c2.01-2.25,6.52-11.91,4.98-13.44l-6.15,4.6-.52-3.21c-3.93,1.6-5,4.77-7.39,7.79l.43-4.33c-3.39-.38-5.45,4.53-7.88.87l6.92-5.18c6.29-4.71,15.68-7.58,16.81-14.13-2,.75-3.69,2.49-5.28,3.86l.84-10.51c.33-4.08,3.43-7.24,3.53-11.64-5.15,4.49-9.14,9.54-13.2,14.67-3.56,4.51-3.89.17-7.92,9.4l-3.25,7.43.35-7.97L-.1,29.95c1.51-3.5,3.93-5.59,6.66-7.7C19.29,12.41,14.82,10.06,22.23,3.97l9.37-7.7c.49-.41,1.88-.97,2.49-.92s1.43,1.21,1.75,1.86l6.19,12.51L34.9.19c-1.3,3.45-2.23,5.93-3.71,8.86-.8,1.58-2.06,3.94-.47,5.54ZM-27.98,69.99c1.11-3.11,1.67-9.71,1.68-13.23-3.59,2.5-5.89,17.8-5,22.49l3.32-9.26ZM-35.03,77.87c2.76-5.04,3.96-10.41,3.98-16.25-4.1.91-4.35,12.6-3.98,16.25ZM-8.47,87.88c-.6-4.35-3.44-7.55-4.61-11.71,4.65,6.55,7.99,13.57,14.07,19.21-2.69-6.31-5.52-11.88-8.69-17.62-3.22-5.81-6.45-11.63-11.19-16.48.45,5.94,4.33,9.77,5.72,15.05l-5.41-9.06c-.28-.48-1.44-1.13-2.06-1.35,2.45,7.91,6.23,15.38,12.17,21.96ZM42.64,83.45l-2.45,8.25c3.35-4.56,5.75-9.31,8.48-14.11l-1.22,5.05,4.05-6.05-2.4,8.33c2.77-3.34,4.6-7.05,6.66-10.96l5.37-10.18c-3.05-2.02-5.88-.78-8.21,1.42-5.06,4.78-8.51,10.49-11.89,16.5l.86-4.52c-4.05,1.81-9.93,8.93-8.73,13.36l1.96-1.77-.87,3.55,8.39-8.87ZM-26.9,73.71c1.93-3.19,1.98-6.3,1-9.17-.95,3.24-1.48,6.28-1,9.17ZM62.95,77.25c3.44-3.61,5.66-7.34,7.26-11.59-3.63.24-7.59,8.95-7.26,11.59ZM61.15,90.64c5.2-6.15,11.16-10.7,17.54-15.24,4.12-2.93,8.76-5.26,11.64-9.84-17.63,9.18-31.25,20.71-42,37.89,5.33-3.03,8.79-8.04,12.82-12.81ZM-15.86,82.38c-.85-5.59-3.01-9.92-5.07-14.37-.45,5.4,1.51,10.74,5.07,14.37ZM60.82,75.92c1.75-1.71,2.59-5.14,2.74-7.61-4.06,2.23-5.29,6.56-6.02,10.83l3.28-3.22ZM18.4,102.19c-1.3-2.71-3.24-4.7-4.85-7.17-4.56-7.01-15.58-22.63-23.77-26.02,2.61,10.62,13.45,26.38,21.85,33.27-3.81-6.41-8.23-12.14-11.24-19.15,6.04,6.58,10.71,13.64,18.01,19.07ZM-49.25,84.63c3.7-3.5,6.46-7.82,8.31-12.81-4.68,2.74-7.01,7.77-8.31,12.81ZM43.59,168.25C7.52,139.08-26.34,109.43-60.85,77.53c.17,7.67,1.49,14.97,3.8,22.08,13.79,42.49,55.11,72.56,100.64,68.65ZM63.57,99.79l1.36,1.16,8.23-7.25-2.91,4.38,5.91-4.73-1.76,5.85,5.56-5.55c4.01-4.01,6.14-9.8,6.84-15.9l-12.32,14.59c1.12-3.65,4.2-5.43,4.7-9.51-2.88,1.96-5.19,4.15-7.66,6.54l-1.42-.42.54-2.05c-5.05,2.32-11.01,10.1-13.31,15.75l8.34-6.69-2.09,3.84ZM25.81,90.71c4.36-.59,6.55-4.23,7.94-7.77-3.18,2.11-5.93,4.68-7.94,7.77ZM25.97,104.09c-5.67-7.03-11.13-12.81-17.36-19.04-.9,3.58,14.41,18.65,17.36,19.04ZM-20.38,111.38c-1.14-6.53-2.15-11.44-3.58-17.28-1.42,4.02-2.2,7.81-2.91,12.14,1.77,2.14,3.85,4.39,6.49,5.14ZM55.48,100.02c2.38-1.6,3.94-3.52,5.07-5.72-2.33,1.52-4,3.46-5.07,5.72ZM-27.85,105.04c.06-3.8-.1-6.52-.78-10.1-1.28,2.14-2.31,4-2.79,6.4-.31,1.57,2.07,3.58,3.57,3.7ZM-33.25,100.6c.33-2.29.41-3.21.32-4.77-1.07.7-2.23,1.82-2.55,2.87-.21.69,1.49,1.8,2.24,1.89ZM47.58,117.89l-8.73-1.05c-1.18-.85-2.52-1.61-4.15-.43-.29.21-1.09.67-.97.92l.42.92-7.68,1.65c-2.26,5.53,19.18-1.42,21.11-2.01ZM84.51,155.28l6.95-4.93c-3.63.77-6.6.15-9.01-2.61l2.28-1.16c-2.68-1.3-4.75-.83-7.26.23l-4.93.54c-.41.86-.45,1.21-.9,1.37l-2.47.92,15.35,5.63ZM81.19,156.92c-6.81-2.96-12.99-5.91-20.27-7.79,3.6,4.8,7.24,8.41,11.51,12.16,3.18-1.14,5.71-2.33,8.76-4.36Z"/>
      <path d="M30.72,14.59c-1.59-1.6-.33-3.97.47-5.54,1.48-2.93,2.41-5.41,3.71-8.86l7.12,9.53-6.19-12.51c-.32-.64-1.14-1.8-1.75-1.86s-1.99.51-2.49.92l-9.37,7.7c-7.41,6.09-2.94,8.44-15.67,18.29C3.83,24.36,1.4,26.45-.1,29.95l5.18-3.37-.35,7.97,3.25-7.43c4.03-9.22,4.36-4.89,7.92-9.4,4.06-5.14,8.04-10.18,13.2-14.67-.09,4.39-3.2,7.55-3.53,11.64l-.84,10.51c1.59-1.37,3.27-3.11,5.28-3.86-1.13,6.55-10.52,9.42-16.81,14.13l-6.92,5.18c2.43,3.66,4.5-1.25,7.88-.87l-.43,4.33c2.39-3.02,3.46-6.19,7.39-7.79l.52,3.21,6.15-4.6c1.54,1.53-2.97,11.19-4.98,13.44l-.38-6.36c-1.35,2.96-2.49,6.01-3.46,9.1,1.69,4.08,4.17,7.08,6.22,11.22C10.84,48.09.89,34.45-14.12,20.68c-.67-.62-1.84-1.16-2.79-1.34-11.08,9.71-22.47,18.81-34.12,27.76-1.71,1.31-3.12,2.78-3.43,4.72l4.46-2.91.75,2.71c.62-2.02,1.19-4.27,3.57-4.78l.17,6.45c1.89-4.26,2.43-8.79,6.52-12.11l-.32,8.09,3.99-8.75c1.18-2.58,2.57-4.87,5.02-6.45l-2.22,12.66c2.23-4.57,3.85-9.14,7.02-13.3.11,2.72-.09,6.58-.21,8.56-.02.38,1.18.81,1.26.53l.36-1.25,2.37-7.76,1.62,2.75.17-7.95c.01-.51,1.67-1.66,1.82-1.16l2.86,9.54c.55-4.06-.99-8.06.72-12.49,1.18,3.01,1.32,5.7,1.91,8.79l1.6-4.87c.45,1.59.73,2.96.8,4.54l.72,17.56,1.75-8.72,1.52,1.1c-1.13-3.59-.54-7.44,1.39-10.73,15.14,14.22,23.34,29.78,37.55,44.83-6.91,4.89-14.05,10.31-21.79,4.91-10.22-7.13-19.63-15.12-28.38-24.03-3.24-3.3-6.03-5.99-9.58-9.25-3.27,5.28-3.26,8.71-7.32,13.54-6.2,7.38-13.41,13.4-21.87,18.16l-5.17-5.14c-.1-10.01.81-19.66,3.67-29.31l1.62-4.65c4.34-13.83,12.11-26.09,22.32-36.36C-4-25.38,41.93-32.99,79.87-14.04c13.2,6.59,24.94,16.95,33.79,28.93,2.49,3.37,4.48,7.27,6.54,10.75.53.9,1.84,2.75,2.34,3.9,1.99,4.15,3.52,8.04,4.95,12.82.14.48,2.39,8.93,2.39,8.93,5.55,20.94,3.05,42.63-6.93,61.84-6.38,12.28-14.25,23.22-24.9,32.14-1.05.88-3.18.21-4.44.09-7.76-.74-15.37-1.06-23.2-.69-4.82.23-8.98,1.11-14.26.96,1.57-1.1,2.84-1.5,4.85-2.39l-10.17-1.02c7.1,6.83,13.58,12.65,20.12,19.86-4.68,2-8.82,2.97-13.42,3.72l-3.68-4.31,2.26,4.89c-3.58.7-7.27,1.36-10.94,1.59-3.81-2.67-7.29-6.01-9.5-10.13l-12.68-23.6,10.47,23.85-26.96-23.01L-1.67,118.33c-1-2.05-1.73-3.89-2.98-5.75l6.99,18.97c-6.58-5.08-12.34-10.18-18.31-15.5-1.79-1.59-2.94-3.79-3.42-6.07-1.33-6.32-1.93-12.41-.42-18.74-2.1-2.8-5.98-7.72-9.95-4.68l-9.28,7.08c-.36.27-1.33.6-1.73.55-.5-.06-1.13-.88-1.57-1.7,3.8-2.77,7.72-5.39,11.62-7.92,3.02-1.96,6.2-1.45,8.86.77l13.11,10.99c4.76,3.99,9.08,8.05,13.51,12.44,3.28,1.36,7.51,1.44,10.63,3.33,6.64,4.02,13.41,12.28,20.09,17.18,3.68-.57,7.07-2.11,10.57-3.47,15.09-5.86,28.43-14.63,39.68-26.39l-1.24-5.26,4.23-8.61c5.24-10.66-3.79-11,11.27-23.79l3.47,6.26.12-4.15c.01-.36.56-1.17.84-1.37,1.96-1.45,5.46,4.78,6.46,5.66-.72-2.8-4.63-7.81-.65-10.33,1.46,1.13,2.79,2.38,4.01,3.55-.57-2.7-1.46-5.83.88-7.75,1.83.38,3.13,2.87,4.17,4.61-.56-6.84.97-4.5,2.99-10.46-2.1.08-3.5.33-5.26,1.15-12.12,5.66-24.67,10.02-37.95,11.9-6.37.9-12.52.59-18.33-2.01-1.09-.49-2.38-.81-3.55-1.01-6.07-3.2-10.6-8.39-15.83-13.19,2.01,7.09,4.13,13.8,3.25,20.87-.39,3.12-3.29,5.3-5.99,7.36-3.38-6.41-6.45-12.82-8.67-19.69l2.77-16.38-2.08-4.78c-1.51-3.46,2.52-6.07,4.75-10.75l5.7,4.42c-3.12-4.15-6.64-7.31-10.37-11.06ZM-5.4,8.2c1.38,2.65,2.64,4.58,2.04,7.24-1.25,5.56,2.37,2.82,1.03,11.42,1.33.6,3.33-3.72,7.76-6.63,5.01-3.29,7.93-7.77,10.66-12.95,2.12-4.03,6.44-6.16,9.94-9.1-5.95-.32-11.46-.45-17.07-1.14-7.69-.94-15.06-2.07-23.15-1.42C-6.47,1.15-10.97,2.59-8.36,6.21c6.13-.22,13.77-.46,20.36-.24-.38,2.12-2.44,1.4-3.73,2.1l-3.54,1.94c-2.32,1.27-5.99,2.23-7.42.84-.13-.12.36-1.01.53-1.03s-.37-.24-.55-.24h-.71s-1.98-1.38-1.98-1.38ZM100.04,14.09l1.17-1.62c-4.46-3.46-12.97-4.31-17.99-6.14-1.84-.67-3.08-2.19-5.43-2.19-9.01,0-6.6-5.1-16.46-4.79l-15.99.49c8.84,8.17,16.62,16.14,24.4,24.94l7.95-6.23c-3.8-.05-7.49-.14-11.37-1.53,7.69-1.17,14.69-1.09,22.08-1.35l19.56-.67-7.92-.92ZM106.39,126.02l-.74,4.79,8.28-7.51-2.15-3.34c.27,1.49-2.03,3.28-2.65,2.29-1.6-2.57-1.68-5.75-1.81-9.15l1.94,1.21c-.54-1.33-2.97-10.56-.06-7.74l.99.96c-.52-3.67-1.79-6.31-.97-10.1l3.21,3.22c-.67-2.99-1.25-5.21-.82-8.05l2.29,2.01-1.41-5.92,1.29-1.03c-1.39-1.77-2.97-3.65-4.95-5.02-.79-.54-3.09.52-3.77,1.18l-12.93,12.59c-18.44,17.96-28.37,27.2-54.24,35.14l10.01,8.54c8.43-2.17,10.57-1.32,18.53-5.83.42-.24,1.57-.48,1.81-.22l.7.76,4.87-3.09-.1,2.82,8.74-6.56c.01,1.45-.13,2.05-.43,3.16l5.3-6.07,2.33,4.4c.32.4,1.57.74,1.61,1.24l.22,2.89,6.32-4.32-.3,3.38,8.87-6.63Z"/>
      <path d="M43.59,168.25c-45.53,3.91-86.85-26.16-100.64-68.65-2.31-7.11-3.63-14.4-3.8-22.08C-26.34,109.43,7.52,139.08,43.59,168.25Z"/>
      <path d="M42.64,83.45l-8.39,8.87.87-3.55-1.96,1.77c-1.2-4.43,4.68-11.55,8.73-13.36l-.86,4.52c3.38-6.01,6.84-11.71,11.89-16.5,2.32-2.2,5.16-3.43,8.21-1.42l-5.37,10.18c-2.06,3.91-3.89,7.62-6.66,10.96l2.4-8.33-4.05,6.05,1.22-5.05c-2.73,4.8-5.13,9.55-8.48,14.11l2.45-8.25Z"/>
      <path d="M63.57,99.79l2.09-3.84-8.34,6.69c2.29-5.65,8.26-13.42,13.31-15.75l-.54,2.05,1.42.42c2.47-2.38,4.78-4.58,7.66-6.54-.49,4.08-3.58,5.86-4.7,9.51l12.32-14.59c-.7,6.1-2.83,11.89-6.84,15.9l-5.56,5.55,1.76-5.85-5.91,4.73,2.91-4.38-8.23,7.25-1.36-1.16Z"/>
      <path d="M18.4,102.19c-7.3-5.43-11.96-12.49-18.01-19.07,3.01,7.01,7.43,12.74,11.24,19.15-8.39-6.89-19.24-22.65-21.85-33.27,8.19,3.38,19.2,19.01,23.77,26.02,1.61,2.47,3.55,4.46,4.85,7.17Z"/>
      <path d="M61.15,90.64c-4.04,4.77-7.49,9.78-12.82,12.81,10.75-17.17,24.37-28.71,42-37.89-2.88,4.58-7.52,6.91-11.64,9.84-6.38,4.53-12.34,9.08-17.54,15.24Z"/>
      <path d="M-8.47,87.88c-5.94-6.58-9.73-14.05-12.17-21.96.63.22,1.78.87,2.06,1.35l5.41,9.06c-1.39-5.28-5.28-9.1-5.72-15.05,4.74,4.84,7.97,10.66,11.19,16.48,3.18,5.74,6,11.31,8.69,17.62-6.08-5.64-9.42-12.65-14.07-19.21,1.17,4.16,4.01,7.37,4.61,11.71Z"/>
      <path d="M84.51,155.28l-15.35-5.63,2.47-.92c.45-.17.49-.51.9-1.37l4.93-.54c2.51-1.06,4.58-1.53,7.26-.23l-2.28,1.16c2.42,2.76,5.38,3.39,9.01,2.61l-6.95,4.93Z"/>
      <path d="M81.19,156.92c-3.05,2.04-5.59,3.23-8.76,4.36-4.26-3.75-7.91-7.36-11.51-12.16,7.28,1.88,13.47,4.83,20.27,7.79Z"/>
      <path d="M47.58,117.89c-1.92.59-23.37,7.54-21.11,2.01l7.68-1.65-.42-.92c-.12-.26.68-.72.97-.92,1.64-1.19,2.97-.42,4.15.43l8.73,1.05Z"/>
      <path d="M-20.38,111.38c-2.63-.75-4.72-3-6.49-5.14.71-4.33,1.48-8.12,2.91-12.14,1.43,5.84,2.44,10.75,3.58,17.28Z"/>
      <path d="M-27.98,69.99l-3.32,9.26c-.89-4.69,1.41-19.99,5-22.49-.01,3.52-.57,10.12-1.68,13.23Z"/>
      <path d="M25.97,104.09c-2.94-.39-18.26-15.45-17.36-19.04,6.23,6.23,11.69,12.01,17.36,19.04Z"/>
      <path d="M-35.03,77.87c-.37-3.64-.12-15.34,3.98-16.25-.03,5.83-1.22,11.21-3.98,16.25Z"/>
      <path d="M-49.25,84.63c1.3-5.03,3.63-10.07,8.31-12.81-1.85,4.99-4.61,9.31-8.31,12.81Z"/>
      <path d="M60.82,75.92l-3.28,3.22c.73-4.27,1.96-8.61,6.02-10.83-.15,2.48-.99,5.9-2.74,7.61Z"/>
      <path d="M-15.86,82.38c-3.56-3.62-5.52-8.97-5.07-14.37,2.06,4.45,4.22,8.78,5.07,14.37Z"/>
      <path d="M62.95,77.25c-.33-2.64,3.63-11.35,7.26-11.59-1.6,4.25-3.82,7.98-7.26,11.59Z"/>
      <path d="M-27.85,105.04c-1.5-.12-3.88-2.13-3.57-3.7.48-2.4,1.51-4.26,2.79-6.4.68,3.58.84,6.29.78,10.1Z"/>
      <path d="M25.81,90.71c2.01-3.09,4.76-5.66,7.94-7.77-1.39,3.54-3.58,7.18-7.94,7.77Z"/>
      <path d="M-26.9,73.71c-.48-2.89.05-5.93,1-9.17.97,2.87.93,5.98-1,9.17Z"/>
      <path d="M-33.25,100.6c-.75-.09-2.45-1.2-2.24-1.89.32-1.05,1.48-2.17,2.55-2.87.09,1.56,0,2.48-.32,4.77Z"/>
      <path d="M55.48,100.02c1.07-2.26,2.74-4.19,5.07-5.72-1.12,2.2-2.68,4.12-5.07,5.72Z"/>
      <path class="st3" d="M106.39,126.02l-8.87,6.63.3-3.38-6.32,4.32-.22-2.89c-.04-.5-1.29-.84-1.61-1.24l-2.33-4.4-5.3,6.07c.3-1.11.44-1.71.43-3.16l-8.74,6.56.1-2.82-4.87,3.09-.7-.76c-.24-.26-1.39-.02-1.81.22-7.96,4.51-10.1,3.65-18.53,5.83l-10.01-8.54c25.87-7.94,35.8-17.18,54.24-35.14l12.93-12.59c.68-.66,2.98-1.72,3.77-1.18,1.98,1.36,3.56,3.25,4.95,5.02l-1.29,1.03,1.41,5.92-2.29-2.01c-.43,2.84.15,5.06.82,8.05l-3.21-3.22c-.82,3.79.45,6.43.97,10.1l-.99-.96c-2.91-2.82-.48,6.42.06,7.74l-1.94-1.21c.13,3.4.21,6.58,1.81,9.15.61.99,2.92-.8,2.65-2.29l2.15,3.34-8.28,7.51.74-4.79ZM99.92,106.18c3.2-3.73,6.57-7.68,6.27-13.36-2.88,3.97-4.97,8.44-6.27,13.36ZM94.09,107.98c4.27-4.36,7.4-8.81,7.89-14.59-4.18,1.78-7.45,11.9-7.89,14.59ZM74.39,124.47c3.84-1.46,6.13-4.12,8.13-7l-.69,3.35c5.16-5.5,12.95-14.94,13.93-22.28-2.59,1.92-4.98,4.11-6.54,6.84l-4.78,8.35.93-5.11c-3.55,2.22-9.21,11.82-10.99,15.85ZM94.04,125.48l2.58-2.71.85,1.72c3.9-4.51,5.93-9.61,6.27-15.63l-14.09,13.34,2.37,2.61,2.04-1.73-.03,2.39ZM102.85,120.89c2.21-1.58,3.26-3.86,3.22-6.27-1.55,1.99-2.6,3.98-3.22,6.27ZM77.34,115.78c-5.97,5.16-11.24,10.24-16.32,15.69,7.58-.8,15.03-8.34,16.32-15.69ZM67.81,122.29c-4.56,1.55-9.67,6.51-14.75,8.35l2.75-2.51c-3.31,1.13-6.82,1.91-8.92,5.26,11.59,1.87,14.79-2.88,20.92-11.1Z"/>
      <path class="st3" d="M100.04,14.09l7.92.92-19.56.67c-7.39.25-14.39.18-22.08,1.35,3.88,1.39,7.57,1.49,11.37,1.53l-7.95,6.23C61.97,15.99,54.18,8.02,45.35-.15l15.99-.49c9.86-.3,7.45,4.79,16.46,4.79,2.36,0,3.59,1.52,5.43,2.19,5.02,1.83,13.53,2.68,17.99,6.14l-1.17,1.62Z"/>
      <path class="st3" d="M-5.4,8.2l1.98,1.38h.71c.17,0,.72.21.55.24s-.65.91-.53,1.03c1.43,1.39,5.1.43,7.42-.84l3.54-1.94c1.29-.71,3.35.02,3.73-2.1-6.59-.21-14.23.02-20.36.24-2.61-3.62,1.89-5.06-5.83-10.6,8.09-.65,15.46.48,23.15,1.42,5.61.69,11.12.82,17.07,1.14-3.5,2.94-7.82,5.07-9.94,9.1-2.73,5.19-5.65,9.66-10.66,12.95-4.43,2.91-6.43,7.23-7.76,6.63,1.34-8.6-2.28-5.87-1.03-11.42.6-2.66-.66-4.59-2.04-7.24Z"/>
      <path d="M74.39,124.47c1.77-4.03,7.44-13.63,10.99-15.85l-.93,5.11,4.78-8.35c1.56-2.73,3.94-4.92,6.54-6.84-.98,7.35-8.77,16.79-13.93,22.28l.69-3.35c-2,2.88-4.29,5.54-8.13,7Z"/>
      <path d="M94.04,125.48l.03-2.39-2.04,1.73-2.37-2.61,14.09-13.34c-.34,6.02-2.37,11.12-6.27,15.63l-.85-1.72-2.58,2.71Z"/>
      <path d="M67.81,122.29c-6.12,8.21-9.33,12.97-20.92,11.1,2.1-3.35,5.61-4.13,8.92-5.26l-2.75,2.51c5.07-1.84,10.19-6.8,14.75-8.35Z"/>
      <path d="M77.34,115.78c-1.29,7.35-8.74,14.89-16.32,15.69,5.08-5.45,10.35-10.54,16.32-15.69Z"/>
      <path d="M94.09,107.98c.44-2.69,3.71-12.82,7.89-14.59-.49,5.78-3.62,10.23-7.89,14.59Z"/>
      <path d="M99.92,106.18c1.29-4.92,3.38-9.39,6.27-13.36.3,5.69-3.07,9.63-6.27,13.36Z"/>
      <path d="M102.85,120.89c.63-2.3,1.67-4.28,3.22-6.27.04,2.41-1.02,4.7-3.22,6.27Z"/>
    </g>
  </g>
  <g id="Layer_4">
    <path class="st3" d="M138.45,22.57c-9,0-6.59-5.09-16.44-4.79l-15.98.49"/>
    <g>
      <path class="st0" d="M63.14,40.83s0,.01,0,.02c0,0,0-.02,0-.02Z"/>
      <path class="st0" d="M134.8,16.38c-1.07-.74-2.26-1.43-4.2-1.79.4.21.83.42,1.31.61,1.1.45,2.04.84,2.89,1.18Z"/>
      <path class="st0" d="M63.42,41.86l-.25-.91s-.03,0-.05,0c-.04.28-.08.58-.12.89.13.06.27.06.42.03Z"/>
      <path class="st0" d="M159.51,29.86c2.89-.39,5.78-.79,5.78-.79.67-.92.38-2.23-.63-2.77-1.85-.99-4.07-1.73-6.35-2.35.8,1.49,1.13,3.07,1.15,3.17.19,1.09.15,2.03.06,2.74Z"/>
      <path class="st0" d="M64.69,40.95c-.51,0-1.02,0-1.52,0l.25.91c.36-.08.78-.41,1.28-.92Z"/>
      <path class="st0" d="M63.61,26.35c-.38-.11-.72-.26-.97-.51l-.66,4.58c-.8,3.53.38,3.71.99,5.59-.22-1.99-.47-3.94-.54-4.42-.26-1.78.26-3.66,1.19-5.24Z"/>
      <path class="st0" d="M16.11,99.56c3.7-3.5,6.46-7.82,8.3-12.8-4.68,2.74-7,7.77-8.3,12.8Z"/>
      <path class="st0" d="M43.48,100.28l12.02,6.96c1.51,0,4.26-.09,7.7-.2-4.24-4.96-7.16-10.6-10.95-15.94,1.17,4.16,4.01,7.36,4.61,11.7-5.94-6.57-9.72-14.04-12.16-21.94.63.22,1.78.87,2.06,1.35l5.41,9.05c-1.39-5.27-5.27-9.1-5.72-15.03,4.73,4.84,7.96,10.65,11.18,16.46,2.61,4.71,4.97,9.31,7.23,14.3.82-.03,1.66-.06,2.54-.08-5.59-7.32-10.62-16.18-12.28-22.95,7.07,2.92,16.23,14.95,21.54,22.69.3,0,.59-.01.89-.02-2.34-2.86-3.92-5.42-3.61-6.64,2.23,2.23,4.36,4.4,6.43,6.59,7.93-.12,15.52-.03,19.18.67l.86-3.54-1.96,1.77c-1.2-4.43,4.68-11.54,8.72-13.35l-.86,4.51c3.38-6.01,6.83-11.7,11.88-16.48,2.32-2.2,5.15-3.43,8.2-1.41l-5.37,10.17c-2.06,3.9-3.89,7.62-6.66,10.95l2.4-8.32-4.04,6.05,1.22-5.04c-2.73,4.8-5.13,9.54-8.47,14.1l2.45-8.25-8.38,8.86c3.67-.57,8.62,0,12.8,0h9.26c9.31-11.28,20.45-19.7,33.96-26.73-2.87,4.58-7.51,6.91-11.63,9.83-6.38,4.53-12.33,9.08-17.53,15.22-.47.56-.93,1.12-1.39,1.68h4.22c2.14-2.41,4.48-4.41,6.64-5.41l-.54,2.05,1.42.42c2.46-2.38,4.78-4.57,7.65-6.53-.49,4.07-3.56,5.85-4.68,9.47h.01l12.29-14.55c-.63,5.46-2.4,10.65-5.64,14.55h3.18l4.39-6.76c5.23-10.65-3.78-10.99,11.26-23.77l3.47,6.25.12-4.15c.01-.36.56-1.17.84-1.37,1.96-1.44,5.45,4.78,6.45,5.65-.72-2.8-4.63-7.8-.65-10.32,1.46,1.13,2.79,2.38,4,3.54-.56-2.7-1.46-5.83.88-7.74,1.83.38,3.13,2.87,4.17,4.61-.56-6.84.97-4.49,2.99-10.46-2.1.08-3.5.33-5.26,1.15-12.11,5.65-24.65,10.01-37.92,11.89-6.36.9-12.51.59-18.32-2.01-1.09-.49-2.38-.81-3.55-1.01-6.06-3.19-10.6-8.39-15.81-13.18,2,7.08,4.12,13.79,3.24,20.85-.39,3.11-3.29,5.3-5.99,7.35-3.38-6.41-6.45-12.81-8.66-19.68l2.77-16.37-2.08-4.77c-.92-2.12.23-3.91,1.77-6.06-1.63,0-3.27,0-4.9,0-3.47,3.64-9.71,6.1-14.31,9.54l-6.91,5.17c2.43,3.66,4.49-1.25,7.88-.87l-.42,4.33c2.39-3.01,3.46-6.19,7.39-7.79l.52,3.21,6.14-4.6c1.54,1.53-2.97,11.18-4.97,13.43l-.38-6.35c-1.35,2.96-2.48,6.01-3.46,9.09,1.69,4.08,4.17,7.07,6.22,11.21-12.49-12.4-21.65-24.34-33.72-36.31-1.79,0-3.58,0-5.37,0,.65,2.31.84,4.52,1.31,6.98l1.6-4.87c.45,1.59.73,2.95.8,4.54l.72,17.54,1.75-8.71,1.52,1.1c-1.13-3.59-.54-7.43,1.39-10.72,15.13,14.21,23.32,29.75,37.52,44.79-6.91,4.89-14.04,10.3-21.77,4.9-10.21-7.12-19.62-15.11-28.36-24.01-3.23-3.29-6.02-5.98-9.57-9.24-3.27,5.27-3.26,8.7-7.32,13.53-5.92,7.05-.1,24.22-6.94,29.88,3.48-2.5,7.03-4.89,10.58-7.19,3.02-1.96,6.19-1.45,8.85.77ZM135.48,80.6c-1.6,4.25-3.82,7.98-7.26,11.58-.33-2.64,3.62-11.34,7.26-11.58ZM128.83,83.25c-.15,2.48-.99,5.89-2.74,7.61l-3.28,3.21c.73-4.27,1.96-8.6,6.02-10.82ZM99.04,97.87c-1.39,3.54-3.58,7.17-7.93,7.76,2.01-3.08,4.76-5.65,7.93-7.76ZM44.41,82.96c2.06,4.44,4.22,8.77,5.06,14.35-3.56-3.62-5.51-8.96-5.06-14.35ZM38.44,88.65c-.48-2.89.05-5.93,1-9.16.97,2.86.93,5.98-1,9.16ZM34.3,76.57c-.03,5.83-1.22,11.2-3.98,16.24-.37-3.64-.12-15.33,3.98-16.24ZM39.05,71.72c-.01,3.52-.57,10.11-1.68,13.22l-3.31,9.26c-.89-4.69,1.41-19.97,4.99-22.48Z"/>
      <path class="st0" d="M70.39,41.56l-.35,7.96,3.25-7.43c.18-.42.36-.8.52-1.16-2.02,0-4.03,0-6.05.01-.99,1.13-1.86,2.41-2.54,3.99l5.17-3.37Z"/>
      <path class="st0" d="M14.34,62.06c-1.71,1.31-3.12,2.78-3.42,4.71l4.46-2.91.75,2.7c.62-2.02,1.19-4.27,3.56-4.78l.17,6.44c1.88-4.25,2.43-8.78,6.52-12.1l-.32,8.08,3.99-8.74c1.18-2.58,2.57-4.87,5.01-6.44l-2.22,12.65c2.23-4.56,3.85-9.13,7.02-13.29.11,2.72-.09,6.57-.21,8.55-.02.37,1.18.81,1.26.53l.36-1.25,2.37-7.75,1.62,2.75.18-8.86c.02-1.04,1.49-1.25,1.79-.24l2.85,9.53c.47-3.5-.6-6.95.19-10.67-3.2,0-6.4.01-9.6.02-8.61,7.25-17.39,14.21-26.32,21.07Z"/>
      <path class="st0" d="M70.39,106.81c.9-.03,1.82-.05,2.75-.08-2.44-2.87-4.8-5.82-7.43-8.67,1.34,3.11,2.96,5.97,4.68,8.75Z"/>
      <path d="M80.37,106.57c.21.22.42.45.63.67h18.55c-3.67-.7-11.25-.79-19.18-.67Z"/>
      <path d="M23.02,107.42c.38-.21.71-.46,1.03-.72-.34.24-.69.48-1.03.72Z"/>
      <path d="M99.55,107.24h12.8c-4.18,0-9.13-.57-12.8,0Z"/>
      <path d="M55.51,107.24h-10.5l18.45.08s-.05-.06-.08-.08h-7.88Z"/>
      <path d="M64.98,107.24s.03.06.04.09h2.73s-.05-.06-.08-.09h-2.69Z"/>
      <path d="M70.39,106.81c.09.14.18.29.27.43h2.92c-.15-.17-.29-.34-.44-.51-.93.03-1.85.05-2.75.08Z"/>
      <path d="M76.65,106.64c.14.2.28.4.41.6h1c-.17-.21-.35-.41-.52-.62-.3,0-.59.01-.89.02Z"/>
      <path d="M64.86,106.99c.04.09.08.17.12.26h2.69c-.09-.11-.18-.23-.26-.34-.87.03-1.72.06-2.54.08Z"/>
      <path d="M139.73,107.27l.02-.03h-.01s0,.02-.01.03Z"/>
      <path d="M55.51,107.24h7.88c-.06-.07-.12-.13-.18-.2-3.43.11-6.19.2-7.7.2Z"/>
      <path d="M55.51,107.24l-12.02-6.96c-2.66-2.23-5.83-2.73-8.85-.77-3.55,2.3-7.1,4.7-10.58,7.19-.32.26-.65.51-1.03.72.84-.18,12.53-.18,12.53-.18h19.95Z"/>
      <path d="M73.28,42.09l-3.25,7.43.35-7.96-5.17,3.37c.68-1.57,1.55-2.85,2.54-3.99-.73,0-1.46,0-2.19,0-.55.52-2.09.08-2.44,0-2.85-1.32-11.66-10.24-13.78-10.23.31.3-.31,1.43,0,1.75,11.99,12.16,28.97,32.72,41.14,44.81-2.05-4.14-4.53-7.13-6.22-11.21.98-3.08,2.11-6.13,3.46-9.09l.38,6.35c2.01-2.25,6.52-11.9,4.97-13.43l-6.14,4.6-.52-3.21c-3.93,1.6-5,4.77-7.39,7.79l.42-4.33c-3.38-.38-5.45,4.53-7.88.87l6.91-5.17c4.6-3.45,10.84-5.91,14.31-9.54-6.33.01-12.66.02-19,.03-.17.36-.34.75-.52,1.16Z"/>
      <path d="M93.36,10.75c3.36-2.81,2.31-2.81,6.41-2.81,4.44,0,15.09,8.04,19.04,11.31,1.36,1.13,4.18,3.37,7.02,6.24.34.34.65.73.92,1.13,2.56,3.83,7.96,10.87,8.97,12.69.85,1.53-11.48,1.48-37.97,1.52-1.54,2.15-2.69,3.94-1.77,6.06l2.08,4.77-2.77,16.37c2.21,6.87,5.29,13.27,8.66,19.68,2.7-2.05,5.6-4.24,5.99-7.35.88-7.06-1.24-13.77-3.24-20.85,5.22,4.79,9.75,9.98,15.81,13.18,1.17.21,2.46.52,3.55,1.01,5.81,2.6,11.96,2.91,18.32,2.01,13.27-1.87,25.81-6.23,37.92-11.89,1.76-.82,3.16-1.07,5.26-1.15-2.02,5.96-3.55,3.62-2.99,10.46-1.04-1.74-2.34-4.23-4.17-4.61-2.34,1.91-1.45,5.04-.88,7.74-1.22-1.17-2.55-2.41-4-3.54-3.98,2.52-.07,7.52.65,10.32-1-.88-4.49-7.1-6.45-5.65-.27.2-.82,1.01-.84,1.37l-.12,4.15-3.47-6.25c-15.04,12.78-6.03,13.12-11.26,23.77l-4.39,6.76h5.14-8.32c-.13.16-.28.31-.42.46l52.8.24.69-107.89C143.87,0,52.09,0,0,0l.57,107.28,22.5.08c.34-.25.69-.48,1.03-.72,6.84-5.66,1.01-22.83,6.94-29.88,4.06-4.83,4.05-8.26,7.32-13.53,3.55,3.26,6.34,5.95,9.57,9.24,8.74,8.9,18.14,16.88,28.36,24.01,7.74,5.4,14.86-.02,21.77-4.9-14.2-15.04-22.4-30.58-37.52-44.79-1.93,3.28-2.52,7.13-1.39,10.72l-1.52-1.1-1.75,8.71-.72-17.54c-.07-1.58-.35-2.95-.8-4.54l-1.6,4.87c-.47-2.46-.66-4.67-1.31-6.98l-1.13.04c-.77,3.7.29,7.15-.18,10.63l-2.85-9.53c-.3-1-1.77-.8-1.79.24l-.18,8.86-1.62-2.75-2.37,7.75-.36,1.25c-.08.28-1.28-.16-1.26-.53.12-1.97.32-5.83.21-8.55-3.17,4.16-4.79,8.73-7.02,13.29l2.22-12.65c-2.44,1.58-3.84,3.87-5.01,6.44l-3.99,8.74.32-8.08c-4.09,3.32-4.63,7.85-6.52,12.1l-.17-6.44c-2.38.51-2.95,2.75-3.56,4.78l-.75-2.7-4.46,2.91c.31-1.93,1.72-3.4,3.42-4.71,8.93-6.87,26.78-22.46,35.38-29.71-1.53-5.55,11.18,5.06,14.89,7.66.23.07,2.03-1.93,4.7-4.36,2.03-1.85,4.74-3.81,6.57-6.1,1.71-2.14,4.57-8.67,6.1-9.94M24.46,86.7c-1.85,4.98-4.61,9.3-8.3,12.8,1.3-5.03,3.63-10.06,8.3-12.8Z"/>
      <path class="st2" d="M63.13,40.85"/>
      <path class="st2" d="M51.21,35.66c-.67-.62-1.84-1.16-2.78-1.34-2.57,2.25-5.16,4.47-7.77,6.67,3.2,0,6.4-.01,9.6-.02.13-.6.29-1.2.53-1.81.24.61.43,1.21.6,1.8,1.79,0,3.58,0,5.37,0-1.78-1.77-3.62-3.53-5.55-5.3Z"/>
      <path class="st2" d="M106.38,40.63c-3.12-4.14-6.64-7.3-10.36-11.05-1.59-1.6-.33-3.96.47-5.54,1.48-2.92,2.41-5.41,3.71-8.85l7.12,9.53-6.19-12.5c-.32-.64-1.14-1.8-1.75-1.86-.61-.05-1.99.51-2.48.92l-9.36,7.69c-7.4,6.08-2.93,8.44-15.66,18.27-1.5,1.16-2.9,2.32-4.11,3.71,2.02,0,4.03,0,6.05-.01,3.54-7.67,3.99-3.92,7.39-8.22,4.06-5.13,8.04-10.17,13.19-14.66-.09,4.39-3.2,7.55-3.53,11.63l-.84,10.5c1.59-1.37,3.27-3.11,5.27-3.86-.3,1.76-1.21,3.24-2.48,4.58,1.63,0,3.27,0,4.9,0,.98-1.36,2.11-2.86,2.98-4.68l5.7,4.42Z"/>
      <path class="st4" d="M148.49,21.32c2.66.97,6.31,1.67,9.81,2.63-.85-1.58-2.21-3.08-4.3-2.61-1.19.27-1.16-5.05-6.1-5.7-6.29-.84-5.36,3.02-7.09,2.67-2-.41-3.65-.98-6.01-1.92,1.9,1.3,3.46,2.75,8.25,2.75,2.35,0,3.59,1.52,5.43,2.19Z"/>
      <path d="M90.02,40.18l.84-10.5c.33-4.08,3.43-7.24,3.53-11.63-5.15,4.49-9.13,9.53-13.19,14.66-3.4,4.3-3.85.55-7.39,8.22,6.33-.01,12.66-.02,19-.03,1.27-1.33,2.18-2.82,2.48-4.58-2,.75-3.69,2.49-5.27,3.86Z"/>
      <path class="st4" d="M90.02,40.18l.84-10.5c.33-4.08,3.43-7.24,3.53-11.63-5.15,4.49-9.13,9.53-13.19,14.66-3.4,4.3-3.85.55-7.39,8.22,6.33-.01,12.66-.02,19-.03,1.27-1.33,2.18-2.82,2.48-4.58-2,.75-3.69,2.49-5.27,3.86Z"/>
      <path d="M101.63,9.42c-5.69-2.75-8.74,3.24-9.81,4-1.51,1.08-2.48,2.16-5.56,4.37-1.36.98-2.57,1.86-3.61,3.44-.74,1.12-.72,1.57-1.49,3.05-.65,1.25-1.5,2.34-3.18,4.47-2.42,3.05-3.66,4.6-5.09,5.57-1.22.82-1.55.76-2.72,1.69-1.47,1.18-1.95,2.09-3.23,3.52-.36.41-.82.89-1.37,1.41.73,0,1.46,0,2.19,0,1.21-1.39,2.61-2.55,4.11-3.71,12.73-9.84,8.26-12.19,15.66-18.27l9.36-7.69c.49-.41,1.87-.97,2.48-.92.61.05,1.43,1.21,1.75,1.86l6.19,12.5-7.12-9.53c-1.3,3.44-2.23,5.93-3.71,8.85-.8,1.57-2.06,3.93-.47,5.54,3.72,3.75,7.24,6.91,10.36,11.05l-5.7-4.42c-.87,1.82-2,3.32-2.98,4.68,26.49-.05,37.92-.36,37.92-.36-7.77-8.79-15.72-17.99-24.55-26.16"/>
      <path class="st4" d="M81.4,22.27c-.59,1.13-1.2,2.21-1.83,3.27-.35.64-.71,1.28-1.09,1.93-.03.06-.09.06-.15.03-2,2.98-4.35,5.59-7.58,7.71-2.9,1.9-4.75,4.4-6.06,5.74.29,0,.58,0,.87,0,.55-.52,1.01-1,1.37-1.41,1.27-1.43,1.76-2.34,3.23-3.52,1.17-.94,1.5-.87,2.72-1.69,1.44-.97,2.68-2.51,5.09-5.57,1.68-2.12,2.54-3.21,3.18-4.47.76-1.47.74-1.92,1.49-3.05,1.04-1.58,2.25-2.46,3.61-3.44,3.08-2.21,5.16-2.56,5.56-4.37.11-.49.05-.92,0-1.19h-3.98c-.13.25-.25.5-.36.75,1.27.06,2.55.12,3.85.19-3.49,2.94-7.81,5.07-9.93,9.09Z"/>
      <path d="M50.26,40.97c.38,0,.75,0,1.13,0-.17-.59-.36-1.19-.6-1.8-.23.61-.4,1.21-.53,1.81Z"/>
      <path class="st2" d="M50.26,40.97c.38,0,.75,0,1.13,0-.17-.59-.36-1.19-.6-1.8-.23.61-.4,1.21-.53,1.81Z"/>
      <path class="st5" d="M70.05,25l3.35-1.83c-1.31-.78-2.77-1.28-4.29-1.03-1.74.29-2.9,1.29-3.46,1.75-.78.66-1.48,1.5-2.04,2.46,1.74.51,4.54-.3,6.44-1.35Z"/>
      <path class="st4" d="M70.05,25l3.35-1.83c-1.31-.78-2.77-1.28-4.29-1.03-1.74.29-2.9,1.29-3.46,1.75-.78.66-1.48,1.5-2.04,2.46,1.74.51,4.54-.3,6.44-1.35Z"/>
      <path d="M77.06,107.24s.07.1.1.15h1.02s-.08-.1-.13-.15h-1Z"/>
      <path d="M112.35,107.24h-31.35c.05.06.1.11.16.17l40.17.18c.1-.12.19-.24.28-.35h-9.26Z"/>
      <path d="M125.03,107.24c-.1.12-.2.24-.3.37l4.19.02c.11-.13.22-.26.34-.39h-4.22Z"/>
      <path d="M70.66,107.24s.05.08.07.12h2.96s-.08-.07-.11-.12h-2.92Z"/>
      <path d="M105.48,106.63c3.34-4.56,5.74-9.3,8.47-14.1l-1.22,5.04,4.04-6.05-2.4,8.32c2.77-3.33,4.6-7.05,6.66-10.95l5.37-10.17c-3.05-2.01-5.88-.78-8.2,1.41-5.05,4.78-8.5,10.48-11.88,16.48l.86-4.51c-4.05,1.81-9.93,8.92-8.72,13.35l1.96-1.77-.86,3.54,8.38-8.86-2.45,8.25Z"/>
      <path d="M136.77,104.3l-1.42-.42.54-2.05c-2.17,1-4.5,3-6.64,5.41h10.49c1.13-3.63,4.19-5.41,4.68-9.47-2.87,1.96-5.19,4.15-7.65,6.53Z"/>
      <path d="M139.75,107.24h6.65c3.24-3.91,5.01-9.1,5.64-14.55l-12.29,14.55Z"/>
      <path d="M139.75,107.24l-.02.03s0-.02.01-.03h-10.49c-.11.13-.22.26-.34.39l17.07.08c.14-.16.28-.3.42-.46h-6.65Z"/>
      <path d="M65.71,98.06c2.63,2.86,4.99,5.81,7.43,8.67,1.16-.03,2.33-.06,3.51-.09-5.31-7.74-14.47-19.77-21.54-22.69,1.66,6.77,6.69,15.63,12.28,22.95.97-.03,1.97-.06,3-.09-1.72-2.78-3.34-5.64-4.68-8.75Z"/>
      <path d="M73.14,106.73c.15.17.29.34.44.51h3.48c-.13-.2-.27-.4-.41-.6-1.18.03-2.35.06-3.51.09Z"/>
      <path d="M67.66,107.24s.05.07.08.1h2.99s-.05-.07-.07-.1h-3Z"/>
      <path d="M73.58,107.24s.08.09.11.13l3.47.02s-.07-.1-.1-.15h-3.48Z"/>
      <path d="M67.4,106.9c.09.12.18.23.26.34h3c-.09-.14-.18-.29-.27-.43-1.02.03-2.02.06-3,.09Z"/>
      <path d="M143.94,90.34c4.11-2.92,8.75-5.25,11.63-9.83-13.51,7.03-24.65,15.46-33.96,26.73h3.41c.46-.56.92-1.12,1.39-1.68,5.2-6.15,11.15-10.69,17.53-15.22Z"/>
      <path d="M121.61,107.24c-.1.12-.19.23-.28.35l3.4.02c.1-.12.2-.24.3-.37h-3.41Z"/>
      <path d="M57.63,92.69c-3.22-5.81-6.45-11.63-11.18-16.46.45,5.94,4.33,9.76,5.72,15.03l-5.41-9.05c-.28-.48-1.44-1.13-2.06-1.35,2.44,7.9,6.23,15.37,12.16,21.94-.6-4.34-3.44-7.55-4.61-11.7,3.79,5.34,6.71,10.99,10.95,15.94.54-.02,1.09-.04,1.65-.05-2.25-4.99-4.62-9.59-7.23-14.3Z"/>
      <path d="M63.21,107.04c.06.07.12.13.18.2h1.59c-.04-.09-.08-.17-.12-.26-.57.02-1.12.04-1.65.05Z"/>
      <path d="M63.38,107.24s.05.06.08.08h1.56s-.03-.05-.04-.08h-1.59Z"/>
      <path d="M39.05,71.72c-3.59,2.5-5.88,17.79-4.99,22.48l3.31-9.26c1.11-3.1,1.67-9.7,1.68-13.22Z"/>
      <path d="M73.93,99.98c-.31,1.22,1.28,3.79,3.61,6.64.94-.02,1.88-.04,2.82-.05-2.08-2.19-4.21-4.36-6.43-6.59Z"/>
      <path d="M78.06,107.24c.04.05.08.1.13.15h2.97c-.05-.04-.1-.1-.16-.15h-2.94Z"/>
      <path d="M77.54,106.62c.17.2.34.41.52.62h2.94c-.21-.22-.42-.45-.63-.67-.94.01-1.88.03-2.82.05Z"/>
      <path d="M30.32,92.8c2.76-5.03,3.95-10.41,3.98-16.24-4.1.91-4.35,12.59-3.98,16.24Z"/>
      <path d="M126.09,90.86c1.75-1.71,2.59-5.13,2.74-7.61-4.06,2.22-5.29,6.55-6.02,10.82l3.28-3.21Z"/>
      <path d="M44.41,82.96c-.45,5.39,1.51,10.73,5.06,14.35-.85-5.58-3.01-9.91-5.06-14.35Z"/>
      <path d="M128.22,92.18c3.44-3.61,5.66-7.33,7.26-11.58-3.63.24-7.58,8.94-7.26,11.58Z"/>
      <path d="M99.04,97.87c-3.17,2.11-5.92,4.68-7.93,7.76,4.36-.59,6.54-4.23,7.93-7.76Z"/>
      <path d="M38.44,88.65c1.93-3.18,1.97-6.3,1-9.16-.95,3.23-1.48,6.28-1,9.16Z"/>
    </g>
    <path class="st3" d="M139.78,51.64l-12.38-13.58,1.28.11c.21.02.37.08.49.19,0,0,12.73,14.6,12.29,14.68"/>
    <path class="st3" d="M151.35,61.09l-17.78-23.03,1.25.12c.21.02.37.09.49.2,0,0,15.55,19.21,15.66,20.41"/>
  </g>
  <g id="Layer_3">
    <g>
      <path d="M7.51,111.63c0-.1.07-.17.17-.17h3.98c2,0,3.32.85,3.86,2.52.21.64.31,1.29.31,3.39s-.1,2.75-.31,3.39c-.54,1.67-1.86,2.52-3.86,2.52h-3.98c-.1,0-.17-.07-.17-.17v-11.48ZM9.16,121.84h2.17c1.43,0,2.31-.47,2.7-1.62.16-.44.24-1.01.24-2.85s-.09-2.42-.24-2.85c-.38-1.15-1.27-1.62-2.7-1.62h-2.17c-.07,0-.1.03-.1.1v8.73c0,.07.03.1.1.1Z"/>
      <path d="M23.57,111.63c0-.1.07-.17.17-.17h7.11c.1,0,.17.07.17.17v1.1c0,.1-.07.17-.17.17h-5.64c-.07,0-.1.03-.1.1v3.48c0,.07.03.1.1.1h4.78c.1,0,.17.07.17.17v1.1c0,.1-.07.17-.17.17h-4.78c-.07,0-.1.03-.1.1v3.6c0,.07.03.1.1.1h5.64c.1,0,.17.07.17.17v1.1c0,.1-.07.17-.17.17h-7.11c-.1,0-.17-.07-.17-.17v-11.48Z"/>
      <path d="M45.44,123.28c-.12,0-.17-.05-.23-.17l-2.37-4.84h-2.61c-.07,0-.1.03-.1.1v4.73c0,.1-.07.17-.17.17h-1.2c-.1,0-.17-.07-.17-.17v-11.48c0-.1.07-.17.17-.17h4.28c2.21,0,3.71,1.36,3.71,3.41,0,1.6-.9,2.77-2.33,3.22l2.52,4.99c.07.1.02.21-.1.21h-1.39ZM45.19,114.87c0-1.24-.82-1.97-2.19-1.97h-2.77c-.07,0-.1.03-.1.1v3.72c0,.07.03.1.1.1h2.77c1.37,0,2.19-.73,2.19-1.97Z"/>
      <path d="M54.54,111.63c0-.1.07-.17.17-.17h1.13c.14,0,.23.05.28.17l3.53,7.97h.05l3.46-7.97c.05-.12.14-.17.28-.17h1.13c.1,0,.17.07.17.17v11.48c0,.1-.07.17-.17.17h-1.1c-.1,0-.17-.07-.17-.17v-8.23h-.05l-2.94,6.51c-.07.16-.16.21-.31.21h-.7c-.17,0-.26-.05-.33-.21l-2.94-6.51h-.05v8.23c0,.1-.07.17-.17.17h-1.1c-.1,0-.17-.07-.17-.17v-11.48Z"/>
      <path d="M75.96,111.63c.03-.1.09-.17.21-.17h1.13c.12,0,.19.07.23.17l4.05,11.48c.04.1-.02.17-.12.17h-1.22c-.12,0-.19-.05-.23-.17l-.9-2.57h-4.78l-.9,2.57c-.05.12-.12.17-.23.17h-1.22c-.1,0-.16-.07-.12-.17l4.11-11.48ZM78.61,119.11l-1.86-5.38h-.04l-1.88,5.38h3.77Z"/>
      <path d="M90.04,123.28c-.1,0-.17-.07-.17-.17v-10.11c0-.07-.03-.1-.1-.1h-3.24c-.1,0-.17-.07-.17-.17v-1.1c0-.1.07-.17.17-.17h8.23c.1,0,.17.07.17.17v1.1c0,.1-.07.17-.17.17h-3.24c-.07,0-.1.03-.1.1v10.11c0,.1-.07.17-.17.17h-1.2Z"/>
      <path d="M101.47,120.71c-.23-.68-.31-1.39-.31-3.34s.09-2.66.31-3.34c.61-1.83,2.04-2.77,4.02-2.77s3.43.94,4.04,2.77c.23.68.31,1.39.31,3.34s-.09,2.66-.31,3.34c-.61,1.83-2.04,2.77-4.04,2.77s-3.41-.94-4.02-2.77ZM108.01,120.28c.14-.44.26-1.2.26-2.9s-.12-2.47-.26-2.91c-.37-1.13-1.2-1.76-2.52-1.76s-2.14.63-2.5,1.76c-.14.44-.26,1.2-.26,2.91s.12,2.47.26,2.9c.37,1.13,1.2,1.76,2.5,1.76s2.16-.63,2.52-1.76Z"/>
      <path d="M117.57,111.63c0-.1.07-.17.17-.17h1.2c.1,0,.17.07.17.17v10.11c0,.07.03.1.1.1h5.64c.1,0,.17.07.17.17v1.1c0,.1-.07.17-.17.17h-7.11c-.1,0-.17-.07-.17-.17v-11.48Z"/>
      <path d="M133.11,123.28c-.1,0-.17-.07-.17-.17v-4.66l-3.5-6.8c-.03-.1.02-.19.14-.19h1.24c.12,0,.19.05.26.17l2.64,5.06h.03l2.63-5.06c.05-.12.12-.17.24-.17h1.2c.14,0,.17.09.14.19l-3.5,6.8v4.66c0,.1-.07.17-.17.17h-1.18Z"/>
      <path d="M147.57,123.28c-.1,0-.17-.07-.17-.17v-10.11c0-.07-.03-.1-.1-.1h-3.24c-.1,0-.17-.07-.17-.17v-1.1c0-.1.07-.17.17-.17h8.23c.1,0,.17.07.17.17v1.1c0,.1-.07.17-.17.17h-3.24c-.07,0-.1.03-.1.1v10.11c0,.1-.07.17-.17.17h-1.2Z"/>
      <path d="M159.52,111.63c0-.1.07-.17.17-.17h1.2c.1,0,.17.07.17.17v11.48c0,.1-.07.17-.17.17h-1.2c-.1,0-.17-.07-.17-.17v-11.48Z"/>
      <path d="M168.8,117.37c0-1.97.09-2.64.31-3.32.59-1.86,2-2.78,3.93-2.78,1.76,0,3.11.87,3.79,2.38.04.09.02.17-.07.23l-1.04.5c-.1.05-.21,0-.24-.09-.47-.92-1.2-1.58-2.44-1.58s-2.07.63-2.45,1.74c-.16.49-.23,1.06-.23,2.92s.07,2.44.23,2.92c.38,1.11,1.17,1.74,2.45,1.74s1.97-.66,2.44-1.58c.03-.09.14-.14.24-.09l1.04.5c.09.05.1.14.07.23-.68,1.51-2.04,2.38-3.79,2.38-1.93,0-3.34-.92-3.93-2.78-.23-.68-.31-1.36-.31-3.32Z"/>
      <path d="M183.71,122c-.07-.07-.09-.17-.02-.26l.76-.9c.07-.09.16-.09.24-.02.76.61,1.95,1.22,3.3,1.22,1.64,0,2.61-.82,2.61-2.02,0-1.01-.57-1.69-2.47-1.93l-.59-.09c-2.3-.31-3.48-1.41-3.48-3.27,0-2.1,1.51-3.46,3.86-3.46,1.39,0,2.73.45,3.6,1.1.09.07.1.16.04.24l-.59.96c-.07.09-.16.09-.24.03-.96-.59-1.84-.89-2.85-.89-1.44,0-2.24.78-2.24,1.91,0,.99.66,1.65,2.49,1.9l.57.09c2.31.31,3.48,1.37,3.48,3.31,0,2.07-1.46,3.57-4.31,3.57-1.67,0-3.29-.68-4.16-1.48Z"/>
    </g>
    <g class="st5">
      <path d="M47.59,119.92c-.55-2.13-1.45-4.23-4.48-4.23-2.52,0-3.39,1.84-3.39,3.52,0,2.23,1.42,3.35,4.1,4.74,3.87,2,5.55,3.48,5.55,6.55,0,3.39-2.94,5.97-7.1,5.97-1.94,0-3.61-.55-4.94-1.06-.26-.9-.65-3.1-.87-4.84l1-.26c.65,2.16,2.06,4.97,5.42,4.97,2.32,0,3.74-1.61,3.74-3.71,0-2.48-1.32-3.48-4.16-5.03-3.39-1.84-5.29-3.39-5.29-6.39s2.39-5.58,6.65-5.58c1.81,0,3.58.48,4.26.61.13,1.16.26,2.45.52,4.55l-1,.19Z"/>
      <path d="M52.14,115.5h8.61v.9c-2.52.23-2.97.45-2.97,3.32v5.55c.65-.06,1.39-.58,2.32-1.48,1.81-1.71,3.97-3.9,5.45-5.58.97-1.1.87-1.52-.52-1.71l-.9-.1v-.9h7.84v.9c-2.42.29-3.26.45-5.42,2.68-.97.94-3.48,3.39-5.55,5.42,2.45,2.9,6.03,7.03,7.71,8.81,1.65,1.77,2.06,2.03,4.06,2.26v.9h-5.16c-2.48-2.81-5.1-5.94-8.03-9.35-.74-.9-1.29-.97-1.81-.94v6.13c0,2.81.29,3.03,2.97,3.26v.9h-8.61v-.9c2.65-.23,2.9-.45,2.9-3.26v-12.58c0-2.9-.23-3.13-2.9-3.32v-.9Z"/>
      <path d="M94.38,116.27c-2.26.26-2.65.61-3.94,2.68-1.45,2.35-2.65,4.58-4.23,7.45-.39.74-.48,1.13-.48,1.9v3.97c0,2.68.29,2.87,3.29,3.16v.9h-9.26v-.9c2.94-.39,3.16-.45,3.16-3.16v-4.16c0-.65-.13-.94-.65-1.87-1.13-2.1-2.23-4.13-3.97-7.16-1.26-2.19-1.58-2.58-3.77-2.81v-.9h7.94v.9c-2.32.32-2.19.74-1.61,1.84,1.35,2.48,2.87,5.39,4.23,7.81,1.16-2.16,3-5.68,3.9-7.45.74-1.61.65-1.94-1.9-2.19v-.9h7.29v.9Z"/>
      <path d="M126.68,115.92c-2.26.32-2.58.58-3.45,3.23-1.06,3.23-3.65,11.42-5.42,17.19h-1.1c-1.68-5.03-3.84-11.26-5.52-16.03-1.87,5.55-3.77,11.06-5.45,16.03h-1.06c-1.61-5.55-3.45-11.58-5.19-17.23-.84-2.61-1.19-2.97-3.29-3.19v-.9h7.97v.9c-2.39.26-2.45.61-2,2.23,1.26,4.35,2.55,8.65,3.87,13.19,1.77-5.13,3.71-10.74,5.35-16.03h1.03c1.81,5.48,3.61,10.58,5.48,16.06,1.35-4.29,3.19-10.03,3.9-12.84.48-1.87.23-2.29-2.52-2.61v-.9h7.39v.9Z"/>
      <path d="M136.7,136.39v-.9c2.1-.26,2.35-.58,1.9-1.81-.42-1.26-1.06-2.87-1.74-4.9h-6.97c-.52,1.45-1,2.71-1.45,4.03-.71,2.1-.26,2.35,2.39,2.68v.9h-7.45v-.9c2.03-.26,2.55-.48,3.68-3.39l6.68-16.94,1.03-.19c2.03,5.52,4.26,11.61,6.29,17.19,1.03,2.81,1.32,3.06,3.61,3.32v.9h-7.97ZM133.47,119.19c-1.03,2.77-2.13,5.71-3.1,8.26h6.03l-2.94-8.26Z"/>
      <path d="M162.69,116.32c-2.26.26-2.65.61-3.94,2.68-1.45,2.35-2.65,4.58-4.23,7.45-.39.74-.48,1.13-.48,1.9v3.97c0,2.68.29,2.87,3.29,3.16v.9h-9.26v-.9c2.94-.39,3.16-.45,3.16-3.16v-4.16c0-.65-.13-.94-.65-1.87-1.13-2.1-2.23-4.13-3.97-7.16-1.26-2.19-1.58-2.58-3.77-2.81v-.9h7.94v.9c-2.32.32-2.19.74-1.61,1.84,1.92,3.51,3.18,5.94,4.23,7.81,1.16-2.16,3-5.68,3.9-7.45.74-1.61.65-1.94-1.9-2.19v-.9h7.29v.9Z"/>
    </g>
    <rect id="REC" class="st1" x="1" y="1.34" width="197.54" height="105.91"/>
    <g>
      <polygon class="st0" points="154.64 7.95 150.98 18.42 158.33 18.42 154.71 7.95 154.64 7.95"/>
      <path class="st3" d="M17.2,13.54l-1.12-.17c-3.56-.47-4.85-1.76-4.85-3.7,0-2.2,1.56-3.73,4.37-3.73,1.97,0,3.7.58,5.56,1.73.17.1.34.1.47-.07l1.15-1.86c.14-.17.1-.34-.07-.47-1.7-1.25-4.31-2.14-7.02-2.14-4.58,0-7.53,2.64-7.53,6.75,0,3.63,2.31,5.76,6.78,6.37l1.15.17c3.7.47,4.81,1.8,4.81,3.76,0,2.34-1.9,3.93-5.09,3.93-2.64,0-4.95-1.19-6.44-2.37-.17-.14-.34-.14-.47.03l-1.49,1.76c-.14.17-.1.37.03.51,1.7,1.56,4.85,2.88,8.1,2.88,5.56,0,8.41-2.92,8.41-6.95,0-3.76-2.27-5.83-6.78-6.44Z"/>
      <path class="st3" d="M50.93,12.56l7.19-8.65c.17-.2.07-.41-.14-.41h-2.78c-.24,0-.37.07-.54.31l-9.8,12.04V3.85c0-.2-.14-.34-.34-.34h-2.34c-.2,0-.34.14-.34.34v22.38c0,.2.14.34.34.34h2.34c.2,0,.34-.14.34-.34v-6.37l4.1-4.95,6.48,11.36c.14.24.24.31.47.31h2.71c.24,0,.34-.17.2-.37l-7.9-13.63Z"/>
      <path class="st3" d="M90.06,3.51h-2.34c-.24,0-.37.1-.48.34l-5.12,9.87h-.07l-5.15-9.87c-.14-.24-.27-.34-.51-.34h-2.41c-.24,0-.34.17-.27.37l6.81,13.26v7.07l2.98-5.45v-1.62l6.81-13.26c.07-.2,0-.37-.27-.37Z"/>
      <path class="st3" d="M130.98,3.51h-2.2c-.24,0-.37.1-.44.34l-4,17.12h-.07l-4.88-17.12c-.07-.2-.17-.34-.41-.34h-1.73c-.2,0-.34.14-.41.34l-2.97,10.65,2.11,1.86,2.08-7.32h.07l3.46,12.1c.07.2,2.21,2.25,2.41,2.25l1.49,1.45c.2,0,.42.56.46.35h0s-4.36-4.05-4.36-4.05l4.36,4.06,5.3-21.35c.03-.2-.03-.34-.27-.34Z"/>
      <path class="st3" d="M107.48,3.51h-2.24c-.24,0-.34.14-.27.34l1.16,4.67,3.46,2.45-1.7-7.11c-.03-.24-.17-.34-.41-.34Z"/>
      <path class="st3" d="M156.23,3.85c-.07-.2-.2-.34-.44-.34h-2.2c-.24,0-.34.14-.41.34l-8,22.38c-.07.2.03.34.24.34h2.37c.2,0,.34-.1.44-.34l1.76-5.02h9.32l1.76,5.02c.07.24.2.34.44.34h2.37c.2,0,.3-.14.24-.34l-7.9-22.38ZM150.98,18.42l3.66-10.48h.07l3.63,10.48h-7.36Z"/>
      <path class="st3" d="M193.12,3.51h-2.34c-.24,0-.37.1-.47.34l-5.12,9.87h-.07l-5.15-9.87c-.14-.24-.27-.34-.51-.34h-2.41c-.24,0-.34.17-.27.37l6.81,13.26v9.09c0,.2.14.34.34.34h2.3c.2,0,.34-.14.34-.34v-9.09l6.81-13.26c.07-.2,0-.37-.27-.37Z"/>
    </g>
  </g>
</svg>